Coordinates
version=1
nRows=23
nColumns=38
inDegrees=no

Units are S.I. units (second, meters, Newtons, ...)
If the header above contains a line with 'inDegrees', this indicates whether rotational values are in degrees (yes) or radians (no).

endheader
time	pelvis_tilt	pelvis_list	pelvis_rotation	pelvis_tx	pelvis_ty	pelvis_tz	hip_flexion_r	hip_adduction_r	hip_rotation_r	knee_angle_r	ankle_angle_r	subtalar_angle_r	mtp_angle_r	hip_flexion_l	hip_adduction_l	hip_rotation_l	knee_angle_l	ankle_angle_l	subtalar_angle_l	mtp_angle_l	lumbar_extension	lumbar_bending	lumbar_rotation	arm_flex_r	arm_add_r	arm_rot_r	elbow_flex_r	pro_sup_r	wrist_flex_r	wrist_dev_r	arm_flex_l	arm_add_l	arm_rot_l	elbow_flex_l	pro_sup_l	wrist_flex_l	wrist_dev_l
2.48	0.242907	1.46687	-1.65588	0.804544	-0.393515	0.935504	0.346713	-0.126003	-0.129394	0.573957	0.12542	0	0	-0.264391	0.0884684	0.0159327	0.0435446	0.130693	0	0	-0.258706	-0.0852342	-0.226388	-0.0892738	-0.232192	0.216054	0.465467	1.0058	0	0	0.00860713	-0.453321	0.403075	0.718762	1.27934	0	0
2.49	0.272416	1.47044	-1.68257	0.804095	-0.402002	0.934225	0.349346	-0.127198	-0.144685	0.516507	0.125599	0	0	-0.269302	0.0882411	0.0175967	0.0457028	0.137566	0	0	-0.257529	-0.0892915	-0.228073	-0.0897494	-0.229231	0.214693	0.464596	1.01086	0	0	0.0144128	-0.456531	0.401989	0.723366	1.28371	0	0
2.5	0.313136	1.47457	-1.72133	0.80351	-0.410481	0.932707	0.352309	-0.127846	-0.158517	0.458745	0.126111	0	0	-0.271902	0.088828	0.014606	0.0512097	0.147238	0	0	-0.255598	-0.0944073	-0.229531	-0.0902934	-0.227358	0.219557	0.465373	1.00803	0	0	0.0190562	-0.461807	0.406738	0.731785	1.26527	0	0
2.51	0.36828	1.47918	-1.77605	0.802849	-0.419044	0.930982	0.355984	-0.127879	-0.169462	0.402299	0.126021	0	0	-0.275531	0.0907467	0.0131856	0.0528293	0.154088	0	0	-0.252472	-0.100481	-0.23003	-0.0908574	-0.22511	0.221329	0.466	1.00831	0	0	0.0225788	-0.464377	0.402807	0.737684	1.2708	0	0
2.52	0.439051	1.48377	-1.84751	0.802089	-0.427688	0.929077	0.360008	-0.127714	-0.178726	0.347863	0.125322	0	0	-0.279116	0.0936415	0.0106598	0.0538054	0.16111	0	0	-0.248615	-0.107421	-0.229844	-0.0914265	-0.222915	0.222958	0.466986	1.00895	0	0	0.0250123	-0.467038	0.398869	0.745156	1.27342	0	0
2.53	0.563812	1.48802	-1.97342	0.801573	-0.436415	0.92675	0.357285	-0.135276	-0.147881	0.284689	0.125839	0	0	-0.282243	0.100988	0.0114435	0.0526901	0.16653	0	0	-0.24277	-0.117647	-0.229894	-0.0927452	-0.221516	0.224281	0.46952	1.01039	0	0	0.0258655	-0.469736	0.3954	0.755067	1.26763	0	0
2.54	0.6108	1.49008	-2.02247	0.800342	-0.445443	0.925059	0.364837	-0.126285	-0.188821	0.244308	0.124041	0	0	-0.29052	0.100968	0.00833056	0.0504573	0.171755	0	0	-0.240884	-0.122641	-0.227793	-0.0930516	-0.218633	0.223936	0.469776	1.01005	0	0	0.0279145	-0.472267	0.39345	0.761438	1.26386	0	0
2.55	0.706312	1.4921	-2.12072	0.799385	-0.454531	0.922919	0.366437	-0.124969	-0.187344	0.19657	0.123816	0	0	-0.296583	0.104966	0.00544428	0.0490901	0.1772	0	0	-0.236415	-0.130432	-0.225953	-0.0933889	-0.216639	0.224086	0.470397	1.00936	0	0	0.0290775	-0.472906	0.387263	0.765512	1.27556	0	0
2.56	0.794009	1.49293	-2.21243	0.798366	-0.463769	0.920775	0.366498	-0.122419	-0.18136	0.151027	0.121015	0	0	-0.305043	0.108838	0.00365714	0.0451764	0.181331	0	0	-0.2324	-0.137685	-0.223238	-0.0933718	-0.215342	0.224373	0.471284	1.00913	0	0	0.0297065	-0.473906	0.384287	0.770471	1.2725	0	0
2.57	0.876254	1.49279	-2.29894	0.797339	-0.473162	0.918614	0.366123	-0.119447	-0.17519	0.111119	0.117272	0	0	-0.314525	0.112571	0.00262832	0.0408827	0.185385	0	0	-0.228692	-0.144573	-0.220555	-0.0932724	-0.214693	0.224506	0.47292	1.01002	0	0	0.0298274	-0.474621	0.381669	0.775026	1.26759	0	0
2.58	1.0813	1.48892	-2.50784	0.797378	-0.482461	0.915452	0.352332	-0.143465	-0.0645268	0.0499801	0.107875	0	0	-0.318258	0.127456	0.00970614	0.0363198	0.186355	0	0	-0.218495	-0.159232	-0.219492	-0.0948947	-0.216097	0.223611	0.477381	1.01445	0	0	0.0293068	-0.476292	0.388778	0.782432	1.22474	0	0
2.59	1.06444	1.48559	-2.49023	0.79534	-0.494125	0.913373	0.393882	-0.122059	-0.299808	0.161948	0.211191	0	0	-0.338732	0.123077	0.00698097	0.031064	0.193069	0	0	-0.217951	-0.165321	-0.221088	-0.0996949	-0.212241	0.222291	0.479973	1.01592	0	0	0.0219379	-0.483644	0.389489	0.794237	1.21221	0	0
2.6	0.898329	1.49639	-2.3369	0.796468	-0.498964	0.915056	0.333813	-0.131677	-0.0141466	0	0.0584494	0	0	-0.339268	0.111626	-0.00908509	0.0464179	0.197495	0	0	-0.233263	-0.140058	-0.209157	-0.0785658	-0.220554	0.221375	0.473863	1.01769	0	0	0.0446889	-0.458269	0.375559	0.763519	1.22773	0	0
2.61	0.926152	1.49488	-2.36659	0.795877	-0.509094	0.913267	0.330437	-0.130014	-0.0153323	0	0.0561777	0	0	-0.349211	0.111943	-0.0128866	0.0504977	0.2033	0	0	-0.232535	-0.142769	-0.209819	-0.0773364	-0.220868	0.220674	0.475282	1.02033	0	0	0.0431522	-0.455598	0.369215	0.762473	1.23603	0	0
2.62	0.710523	1.49395	-2.15018	0.794158	-0.520014	0.913174	0.349004	-0.0880804	-0.196386	0.0505392	0.11625	0	0	-0.370452	0.0930845	-0.0270893	0.0581086	0.213935	0	0	-0.244094	-0.131215	-0.210921	-0.0743249	-0.219122	0.220913	0.473801	1.02632	0	0	0.0408035	-0.45358	0.359236	0.761156	1.25146	0	0
2.63	0.756281	1.49444	-2.19685	0.794391	-0.529888	0.911492	0.335814	-0.0968189	-0.118914	0.0387809	0.0894543	0	0	-0.37405	0.0942787	-0.0301345	0.0693998	0.21946	0	0	-0.242447	-0.131588	-0.212971	-0.0711771	-0.22146	0.22211	0.474527	1.02964	0	0	0.0399791	-0.447792	0.353828	0.756273	1.25683	0	0
2.64	0.656623	1.49241	-2.09713	0.792996	-0.541194	0.910527	0.347808	-0.0720103	-0.222363	0.0783161	0.108913	0	0	-0.385988	0.0829355	-0.0460819	0.0854948	0.230606	0	0	-0.247274	-0.126577	-0.214593	-0.0697522	-0.220638	0.222193	0.474949	1.03412	0	0	0.0348539	-0.446754	0.349027	0.755827	1.26067	0	0
2.65	0.747036	1.4918	-2.18536	0.79376	-0.551814	0.908576	0.332593	-0.0908804	-0.133395	0.0789429	0.093332	0	0	-0.386144	0.0868037	-0.0471282	0.103231	0.235926	0	0	-0.243215	-0.129859	-0.220633	-0.0682669	-0.223357	0.223387	0.476584	1.03609	0	0	0.0306487	-0.441768	0.346168	0.75194	1.26088	0	0
2.66	0.676617	1.48916	-2.11201	0.793091	-0.563619	0.907699	0.33439	-0.077734	-0.203334	0.105767	0.0998615	0	0	-0.395769	0.0769867	-0.0591857	0.12276	0.243044	0	0	-0.246776	-0.12528	-0.225573	-0.0677964	-0.223698	0.225291	0.477251	1.03855	0	0	0.0240701	-0.439809	0.34327	0.750392	1.25985	0	0
2.67	0.615079	1.48881	-2.04816	0.792476	-0.57503	0.906872	0.336008	-0.0650468	-0.232685	0.132462	0.0959334	0	0	-0.39856	0.0659895	-0.0743431	0.149433	0.251025	0	0	-0.248942	-0.11894	-0.229851	-0.0663322	-0.224323	0.226065	0.478148	1.04188	0	0	0.0187425	-0.436627	0.340296	0.747074	1.25894	0	0
2.68	0.586467	1.48865	-2.01708	0.79225	-0.586572	0.905983	0.33119	-0.0608618	-0.236169	0.143449	0.0811695	0	0	-0.397257	0.0573185	-0.0892753	0.180783	0.257152	0	0	-0.249265	-0.114006	-0.234269	-0.0655118	-0.225658	0.226146	0.47919	1.04539	0	0	0.0137843	-0.432092	0.337717	0.741574	1.25935	0	0
2.69	0.540663	1.49083	-1.96904	0.791738	-0.59818	0.90515	0.324689	-0.0528802	-0.237762	0.14456	0.0514506	0	0	-0.386653	0.0435125	-0.117201	0.22837	0.268673	0	0	-0.247714	-0.106927	-0.237286	-0.0646747	-0.226743	0.225621	0.479052	1.05333	0	0	0.00986083	-0.427362	0.337323	0.733994	1.25461	0	0
2.7	0.49273	1.49061	-1.92021	0.791142	-0.610177	0.904812	0.314362	-0.0459283	-0.240161	0.144218	0.0214821	0	0	-0.385255	0.033053	-0.127461	0.259449	0.263853	0	0	-0.247818	-0.100798	-0.238883	-0.0641445	-0.228531	0.227887	0.479088	1.05465	0	0	0.0056404	-0.421959	0.335437	0.725585	1.26076	0	0
